<?xml version="1.0" standalone="no"?>
<!DOCTYPE svg PUBLIC "-//W3C//DTD SVG 20010904//EN"
 "http://www.w3.org/TR/2001/REC-SVG-20010904/DTD/svg10.dtd">
<svg version="1.0" xmlns="http://www.w3.org/2000/svg"
 width="505.000000pt" height="505.000000pt" viewBox="0 0 505.000000 505.000000"
 preserveAspectRatio="xMidYMid meet">
<metadata>
Created by potrace 1.11, written by Peter Selinger 2001-2013
</metadata>
<g transform="translate(0.000000,505.000000) scale(0.100000,-0.100000)"
fill="#000000" stroke="none">
<path d="M1240 4210 c0 -420 -3 -640 -10 -640 -7 0 -10 -205 -10 -594 0 -386
-4 -597 -10 -601 -5 -3 -10 -40 -10 -81 0 -54 -3 -73 -12 -72 -8 2 -14 -10
-16 -29 -2 -18 -7 -33 -13 -33 -5 0 -8 3 -8 7 1 5 1 38 0 76 -1 68 -21 97 -21
30 0 -20 -3 -33 -7 -29 -9 9 -10 11 -11 119 -2 110 -21 109 -24 -1 l-1 -77 -7
65 c-6 63 -15 65 -23 5 -2 -16 -5 48 -6 143 0 107 -5 172 -11 172 -6 0 -10
-76 -10 -209 0 -182 -2 -210 -16 -215 -9 -3 -14 -13 -10 -21 3 -8 1 -17 -4
-20 -6 -4 -10 -1 -10 4 0 6 -4 11 -10 11 -5 0 -10 -13 -10 -30 0 -19 -5 -30
-14 -30 -7 0 -19 -7 -26 -15 -17 -20 -60 -16 -60 6 0 10 -3 25 -6 34 -5 13 -8
14 -15 3 -5 -8 -9 7 -9 39 0 58 -17 81 -23 31 -2 -18 -5 35 -5 118 -2 112 -5
153 -15 157 -10 4 -12 114 -11 522 1 423 -2 518 -13 522 -7 3 -13 19 -13 35 0
21 -4 29 -13 25 -10 -4 -13 62 -12 345 0 192 -3 355 -7 361 -4 7 -8 10 -9 7
-1 -3 -3 -139 -3 -303 -1 -219 -5 -300 -14 -306 -8 -5 -12 -85 -15 -291 l-3
-285 -2 355 c-1 195 -2 451 -2 568 0 134 -4 212 -10 212 -6 0 -10 -118 -10
-335 0 -211 -4 -335 -10 -335 -5 0 -11 -61 -13 -147 -1 -82 -4 20 -5 225 -1
240 -6 372 -12 372 -6 0 -10 -70 -11 -187 0 -104 -3 -182 -6 -174 -5 11 -7 11
-14 0 -5 -8 -9 96 -10 246 -1 244 -4 397 -8 420 -1 6 -5 5 -9 -2 -4 -7 -7 -89
-6 -182 2 -140 -1 -171 -12 -171 -15 0 -15 5 -19 130 -3 99 -3 102 -15 95 -6
-3 -10 5 -10 19 0 25 -31 52 -44 39 -3 -3 -6 30 -6 75 0 48 -4 82 -10 82 -5 0
-10 14 -10 30 0 17 -4 30 -10 30 -6 0 -10 -50 -10 -129 0 -86 -4 -131 -11
-133 -7 -2 -12 -37 -13 -91 0 -48 -4 -87 -8 -87 -5 0 -8 -16 -8 -35 0 -23 -4
-34 -12 -32 -10 1 -14 -35 -16 -150 -1 -91 -6 -153 -12 -153 -6 0 -10 -84 -10
-220 0 -140 -4 -220 -10 -220 -6 0 -10 -126 -10 -359 0 -261 -3 -360 -11 -363
-8 -3 -12 -40 -13 -108 -1 -59 -5 -105 -11 -107 -6 -2 -10 20 -10 54 1 32 -1
68 -3 80 -5 26 -22 31 -22 8 0 -8 -4 -15 -10 -15 -6 0 -10 35 -10 85 0 50 -4
85 -10 85 -5 0 -10 -17 -11 -37 0 -21 -4 -47 -8 -57 -13 -33 -18 0 -20 139 -2
71 -5 133 -7 137 -3 5 -5 105 -4 223 0 141 -3 215 -10 215 -5 0 -11 -18 -11
-40 -1 -22 -3 -44 -4 -50 -1 -5 -3 -242 -4 -525 l-1 -515 -60 0 c-47 0 -60 -3
-60 -15 0 -12 13 -15 59 -15 l58 0 7 -192 c3 -106 9 -312 12 -458 3 -146 8
-272 11 -280 13 -33 22 86 22 311 1 130 4 239 9 243 4 4 7 75 8 157 0 82 3
152 7 155 3 3 6 -11 5 -32 0 -22 4 -50 9 -64 5 -14 8 -52 7 -85 -2 -35 2 -62
8 -66 6 -4 10 -39 10 -88 -1 -44 3 -83 8 -86 6 -4 10 4 10 17 3 144 8 229 13
235 4 3 7 -41 7 -99 0 -59 4 -108 9 -110 5 -1 11 -66 12 -143 2 -77 8 -146 13
-154 6 -7 11 -19 12 -25 0 -6 2 -17 2 -24 1 -7 7 -10 13 -7 7 5 10 -34 9 -122
-2 -175 -2 -185 10 -178 6 3 10 -5 10 -19 0 -14 5 -28 10 -31 6 -3 10 -1 10 5
0 6 5 8 10 5 6 -4 10 17 10 55 0 34 3 59 8 56 4 -2 6 -34 5 -70 -1 -36 2 -68
7 -71 10 -6 11 3 12 97 1 48 3 55 14 43 10 -10 14 -47 14 -143 0 -105 3 -132
16 -142 8 -8 14 -25 14 -39 -3 -46 0 -62 10 -56 6 4 10 -10 10 -34 0 -23 5
-41 10 -41 6 0 11 76 12 203 1 111 4 158 5 105 2 -54 8 -98 13 -98 6 0 10 -27
10 -60 0 -33 4 -60 10 -60 6 0 10 85 10 236 0 145 4 233 9 229 6 -3 12 17 14
47 3 54 8 -40 11 -219 0 -45 4 -85 8 -89 10 -9 9 -18 13 151 5 168 13 255 25
275 6 10 10 -88 10 -262 0 -162 4 -278 9 -278 5 0 11 99 13 230 2 166 6 232
15 242 10 10 13 -36 13 -230 0 -155 4 -242 10 -242 6 0 10 88 11 243 1 133 4
280 8 327 l8 85 2 -125 c1 -131 9 -200 21 -200 4 0 10 138 14 308 9 477 11
520 19 528 4 4 8 37 8 73 1 36 4 56 6 43 5 -26 23 -30 24 -4 0 14 2 14 7 2 9
-19 30 -24 47 -10 17 14 55 -4 55 -26 0 -8 4 -12 10 -9 5 3 15 -5 22 -19 12
-28 24 -33 31 -13 3 6 6 -75 6 -180 1 -122 5 -193 11 -193 6 0 10 53 11 138 2
179 16 240 18 74 1 -79 5 -121 11 -117 5 3 10 37 10 75 0 38 5 72 10 75 6 4 8
11 5 16 -4 5 -1 9 4 9 6 0 11 -14 11 -31 0 -17 4 -28 10 -24 5 3 11 45 11 93
1 48 3 79 6 69 2 -9 9 -15 14 -12 5 4 9 -3 9 -13 0 -12 6 -19 17 -18 24 2 28
-33 28 -224 0 -99 4 -168 10 -172 6 -4 11 -109 12 -270 4 -411 14 -728 24
-722 5 3 9 108 9 233 0 232 6 321 21 321 5 0 9 -88 9 -196 0 -127 3 -193 10
-189 6 4 11 77 12 178 2 151 3 157 5 50 3 -109 12 -148 26 -110 2 6 4 -14 4
-46 0 -45 4 -61 19 -71 27 -20 31 -13 26 43 -3 43 -1 50 12 45 14 -5 16 9 17
117 1 68 1 127 0 132 0 4 6 7 14 7 9 0 15 -9 15 -25 0 -14 5 -25 10 -25 6 0
11 35 12 83 0 45 3 66 5 47 3 -19 9 -39 14 -45 5 -5 10 33 11 100 2 110 2 110
5 23 2 -49 8 -88 13 -88 6 0 11 37 12 83 1 61 3 68 5 30 2 -29 8 -53 14 -53 5
0 10 24 11 53 l2 52 3 -48 c6 -69 23 -47 23 29 0 47 4 64 14 64 10 0 14 30 19
127 3 79 9 129 16 131 7 2 11 43 12 110 1 59 3 99 6 90 10 -40 23 -14 25 50 2
66 2 67 5 12 6 -86 23 -85 25 1 2 73 2 73 5 14 5 -81 23 -97 23 -19 0 33 4 54
8 46 5 -6 7 -32 5 -56 -2 -25 1 -47 7 -51 10 -6 15 48 10 105 -1 14 2 21 6 17
5 -5 9 -35 9 -68 0 -34 4 -58 10 -56 6 1 10 25 10 54 0 28 3 49 8 46 4 -2 7
-33 7 -69 0 -93 20 -71 22 24 l2 77 3 -72 c2 -40 8 -73 13 -73 5 0 11 44 13
98 l3 97 2 -102 c3 -128 21 -139 24 -15 l2 87 3 -75 c5 -99 22 -117 25 -24 1
50 2 57 5 24 6 -78 17 -78 23 0 l6 75 2 -72 c2 -92 22 -97 22 -6 0 36 3 64 6
60 3 -3 6 -37 6 -77 0 -49 4 -69 12 -65 6 3 19 8 29 11 10 4 16 13 13 20 -3 7
-1 16 4 19 6 4 10 -7 10 -24 0 -36 17 -42 23 -8 4 19 4 18 6 -5 0 -18 7 -28
16 -28 8 0 15 -7 15 -15 0 -18 16 -20 23 -2 3 6 6 -5 6 -25 1 -41 17 -52 24
-15 2 12 5 3 6 -20 0 -24 6 -43 11 -43 6 0 11 19 12 43 l1 42 4 -38 c4 -31 7
-36 18 -27 11 9 12 7 8 -9 -3 -13 0 -23 8 -26 10 -4 13 -19 11 -50 -5 -52 12
-60 24 -12 6 23 10 -10 15 -118 3 -82 7 -156 8 -162 2 -19 19 -16 24 5 3 9 5
-36 6 -101 1 -76 5 -116 11 -112 6 4 10 -5 10 -19 0 -14 5 -26 10 -26 6 0 11
44 12 108 2 87 3 93 5 35 2 -40 8 -73 13 -73 5 0 11 33 13 73 l3 72 2 -89 c2
-69 5 -87 15 -83 11 4 14 -9 13 -56 -1 -36 3 -62 10 -64 8 -2 10 12 9 44 -1
26 0 42 2 36 14 -38 23 0 26 109 l3 123 2 -135 c1 -96 5 -131 13 -123 6 6 9
44 7 97 -2 64 0 86 10 86 8 0 13 25 14 88 2 82 2 83 5 19 6 -105 22 -79 26 40
l3 108 2 -108 c1 -69 6 -106 12 -102 5 3 10 20 10 36 0 26 2 29 19 19 11 -5
22 -10 25 -10 3 0 7 60 8 133 1 72 3 104 5 69 4 -61 22 -80 24 -24 0 24 1 25
9 7 9 -20 13 -12 13 28 0 10 7 17 17 17 11 0 24 14 33 37 15 35 16 36 16 11 2
-61 24 -77 36 -25 l7 32 10 -30 c5 -16 12 -37 15 -45 3 -11 8 -9 17 9 13 24
14 24 24 4 6 -11 8 -23 5 -27 -3 -3 1 -6 10 -6 12 0 17 9 17 29 0 17 4 32 9
35 5 4 7 -3 4 -14 -3 -11 0 -20 6 -20 6 0 11 -12 11 -26 0 -22 2 -25 15 -14
10 8 16 32 16 69 l2 56 6 -70 c4 -39 11 -77 16 -85 6 -8 10 -31 10 -50 0 -19
5 -36 10 -37 6 -2 10 18 9 46 -1 42 1 48 17 44 13 -4 19 -14 19 -34 0 -16 5
-29 10 -29 6 0 10 45 10 115 0 86 3 115 13 115 16 0 39 63 41 115 2 24 7 39
14 38 11 -3 16 13 15 45 -1 10 2 10 13 1 15 -12 15 -11 16 86 1 36 2 36 5 8 6
-50 23 -39 24 15 1 27 4 36 6 22 9 -48 23 -45 24 6 1 38 3 43 8 24 4 -14 13
-24 19 -23 7 2 12 -11 12 -31 0 -19 5 -38 10 -41 6 -4 10 8 10 29 0 20 4 36 9
36 10 0 21 -34 21 -67 0 -13 4 -23 9 -23 5 0 12 -45 16 -100 4 -55 10 -100 14
-100 7 0 35 -58 38 -80 1 -8 5 -68 9 -132 4 -65 11 -118 16 -118 4 0 8 -117 8
-260 0 -167 4 -260 10 -260 6 0 11 44 12 108 1 79 3 89 5 40 2 -38 8 -68 13
-68 6 0 10 -131 10 -340 0 -214 4 -340 10 -340 6 0 11 66 13 162 l3 163 2
-198 c1 -129 5 -196 12 -192 6 4 10 92 10 231 0 148 3 223 10 219 6 -4 10 7
10 24 0 17 5 30 11 28 10 -2 13 88 20 543 1 63 4 109 6 103 13 -36 23 -3 26
85 1 53 4 -53 5 -235 1 -214 6 -333 12 -333 6 0 10 120 10 341 0 198 4 338 9
335 14 -9 17 13 17 121 -1 62 3 101 9 100 6 -1 12 25 15 58 4 50 6 56 13 32 4
-15 12 -25 17 -22 6 3 11 -1 11 -9 1 -9 3 -20 4 -26 1 -5 3 -42 4 -82 1 -68
12 -83 24 -33 3 11 5 1 6 -22 1 -56 19 -56 24 -1 2 24 4 1 5 -49 2 -100 19
-127 25 -40 l3 52 2 -62 c2 -62 16 -85 25 -40 2 12 5 -2 6 -30 2 -74 17 -66
26 12 3 36 10 65 15 65 9 0 18 79 21 180 1 37 8 70 15 77 9 9 12 38 10 93 -2
45 1 83 6 86 4 3 8 -4 8 -15 0 -12 4 -21 10 -21 5 0 11 30 13 68 l3 67 2 -72
c3 -94 22 -108 22 -16 1 51 3 64 11 50 6 -9 9 -25 8 -35 -4 -41 2 -73 12 -67
6 4 9 32 8 66 -1 32 1 62 4 66 4 3 7 -26 7 -65 0 -88 18 -96 23 -9 l3 62 2
-72 c2 -80 22 -114 22 -37 0 26 3 45 6 41 4 -3 8 -68 9 -144 2 -76 3 -144 4
-151 1 -19 20 -5 20 16 1 38 5 51 13 46 4 -3 12 5 17 18 7 17 10 -2 10 -69 1
-106 15 -123 25 -31 3 34 11 65 16 68 6 4 12 17 15 30 8 42 15 34 15 -19 0
-71 17 -56 22 21 3 35 10 64 16 66 7 2 12 25 12 58 0 30 4 54 10 54 5 0 9 -10
7 -21 -1 -12 3 -24 9 -26 8 -3 11 17 9 62 -1 36 2 68 6 71 5 3 9 -11 9 -30 0
-57 20 -41 21 17 1 34 3 44 7 29 8 -26 28 -26 25 1 -2 9 2 17 7 17 6 0 10 -7
10 -15 0 -8 5 -15 10 -15 6 0 10 10 10 21 0 18 2 19 15 9 12 -10 15 -10 15 0
0 9 9 11 30 7 17 -4 30 -3 30 2 0 5 9 11 20 14 13 3 21 -1 25 -14 8 -23 25
-25 25 -2 0 9 3 13 7 10 3 -4 12 -2 18 3 9 8 15 5 20 -7 7 -17 8 -17 15 2 8
18 9 18 10 -5 0 -21 2 -23 13 -10 7 8 20 16 30 16 14 2 17 -6 17 -40 0 -23 5
-47 12 -54 6 -6 12 -33 12 -59 1 -33 5 -47 14 -46 9 2 12 -28 12 -127 0 -106
3 -130 14 -130 16 0 15 18 23 -473 4 -315 22 -359 25 -64 2 179 3 182 5 50 5
-215 23 -179 25 50 2 154 3 167 5 65 3 -122 17 -171 26 -90 2 20 4 -27 5 -105
1 -82 6 -144 12 -148 7 -4 10 74 11 227 1 245 5 337 14 346 3 3 5 -19 5 -48 0
-54 14 -60 23 -10 2 14 5 -49 6 -139 1 -126 4 -162 13 -153 16 16 25 1828 9
1818 -7 -5 -10 48 -10 164 -1 133 2 169 12 164 8 -6 8 -3 -1 9 -8 9 -13 26
-12 39 6 63 -1 178 -10 178 -6 0 -11 -124 -12 -347 -2 -241 -4 -303 -8 -203
-5 139 -16 170 -23 65 -2 -27 -4 100 -5 283 -1 213 -6 332 -12 332 -6 0 -11
-119 -12 -332 -2 -252 -3 -280 -5 -118 -2 118 -6 222 -11 230 -4 8 -9 -48 -12
-125 l-6 -140 -2 167 c-1 98 -6 169 -12 173 -6 4 -10 -30 -10 -96 0 -56 -3
-99 -7 -96 -8 9 -10 60 -12 311 -1 145 -4 207 -11 200 -7 -7 -10 -164 -8 -472
2 -365 0 -462 -9 -462 -10 0 -13 -57 -13 -250 0 -190 -3 -249 -12 -247 -8 1
-12 -12 -11 -40 1 -24 -2 -43 -7 -43 -6 0 -10 136 -10 360 0 231 -4 360 -10
360 -6 0 -11 -154 -12 -427 -3 -462 1 -432 -53 -422 -14 3 -19 -1 -17 -11 1
-10 -2 -9 -13 4 -8 11 -16 17 -16 13 -1 -4 -2 -11 -3 -16 -3 -23 -16 -21 -16
2 0 28 -14 37 -23 15 -4 -10 -6 -10 -6 0 -1 7 -5 11 -11 7 -5 -3 -7 -12 -4
-19 3 -8 1 -17 -5 -21 -7 -4 -11 4 -11 19 0 14 -4 28 -10 31 -6 4 -10 -6 -10
-22 0 -22 -2 -25 -10 -13 -5 8 -7 23 -4 34 4 13 2 17 -7 14 -8 -3 -14 -18 -13
-36 0 -18 -3 -32 -8 -32 -4 0 -8 20 -8 45 0 25 -4 45 -10 45 -5 0 -10 -23 -10
-52 0 -66 -8 -58 -14 13 -5 68 -5 67 -15 50 -5 -8 -8 -31 -6 -53 2 -21 -1 -38
-6 -38 -5 0 -9 25 -9 56 0 34 -4 53 -10 49 -5 -3 -10 -34 -10 -67 0 -34 -3
-59 -6 -56 -3 4 -5 39 -5 80 0 73 -11 119 -21 81 -2 -10 -4 -42 -3 -70 1 -29
-2 -53 -7 -53 -4 0 -8 50 -8 110 0 123 -17 152 -23 38 -2 -45 -4 -21 -5 60 -1
80 -6 132 -12 132 -11 0 -13 -13 -10 -79 1 -29 -2 -41 -9 -37 -7 5 -11 63 -11
167 0 199 -18 217 -23 22 l-3 -138 -2 173 c-1 106 -6 172 -12 172 -6 0 -10
-47 -10 -122 0 -67 -2 -119 -5 -116 -3 2 -6 82 -7 176 -2 109 -7 171 -13 169
-6 -2 -9 -82 -8 -216 0 -117 -2 -210 -5 -206 -4 4 -7 37 -8 73 -2 152 -5 192
-14 192 -6 0 -11 -47 -12 -117 l-2 -118 -3 98 c-2 59 -8 95 -13 92 -6 -4 -11
-106 -12 -248 -1 -133 -4 -209 -5 -169 -5 103 -23 90 -23 -18 0 -49 -3 -90 -8
-90 -4 0 -7 35 -7 78 1 82 -2 102 -16 102 -4 0 -7 -47 -6 -104 2 -58 0 -103
-2 -100 -6 5 -9 58 -10 142 -1 76 -20 44 -24 -40 l-3 -83 -2 98 c-3 140 -22
124 -24 -20 l-2 -118 -3 105 c-2 58 -8 109 -13 114 -10 10 -13 -18 -12 -86 0
-16 -4 -28 -9 -28 -5 0 -9 62 -9 144 0 107 -3 145 -12 148 -10 4 -14 48 -16
166 -4 173 -19 219 -25 75 -2 -52 -4 -21 -5 75 -1 100 -6 162 -12 162 -6 0
-10 -67 -10 -182 0 -100 -3 -179 -6 -175 -4 3 -7 83 -8 178 -1 110 -5 174 -11
176 -7 2 -11 -19 -10 -57 1 -33 -3 -60 -7 -60 -4 0 -8 9 -8 21 0 11 -4 18 -9
15 -5 -3 -9 -80 -8 -171 0 -91 -3 -168 -6 -172 -4 -3 -7 51 -7 121 0 166 -19
160 -22 -7 l-2 -122 -3 113 c-2 63 -8 112 -13 112 -6 0 -11 -86 -12 -217 -2
-137 -3 -173 -5 -95 -2 67 -8 122 -13 122 -5 0 -11 -57 -13 -127 l-3 -128 -2
145 c-1 90 -6 140 -11 135 -6 -6 -11 -37 -13 -70 -3 -58 -4 -57 -12 33 -5 50
-12 92 -17 92 -5 0 -9 90 -9 200 0 127 -4 200 -10 200 -6 0 -11 -76 -12 -202
-2 -151 -3 -170 -5 -75 -3 98 -7 127 -17 127 -10 0 -14 34 -16 158 -5 266 -6
286 -14 308 -3 12 -8 46 -10 75 -3 29 -9 55 -15 57 -7 2 -11 47 -11 127 0 138
-17 182 -23 58 -3 -73 -3 -72 -5 25 -1 60 -6 102 -12 102 -6 0 -10 -86 -10
-239 0 -149 -4 -242 -10 -246 -6 -4 -10 -61 -10 -137 0 -115 -2 -129 -15 -118
-13 11 -15 -5 -15 -134 0 -91 -4 -146 -10 -146 -5 0 -10 -25 -10 -55 0 -34 -4
-54 -11 -53 -7 2 -12 -26 -15 -76 -5 -103 -14 -111 -14 -13 0 140 -18 80 -22
-71 -2 -92 -7 -154 -14 -163 -7 -8 -12 -27 -12 -43 0 -15 -4 -31 -10 -35 -5
-3 -12 -17 -15 -31 -2 -15 -5 -6 -6 22 -1 51 -20 78 -22 31 0 -15 -3 -22 -6
-15 -10 26 -23 10 -23 -30 0 -57 -8 -44 -11 17 -3 65 -10 85 -20 59 -8 -20
-11 -5 -12 79 -1 23 -6 37 -14 37 -7 0 -14 10 -14 23 -2 25 -6 95 -8 117 -1
13 -2 13 -11 0 -8 -12 -10 -10 -11 10 -7 130 -7 129 -19 110 -7 -10 -10 23
-10 102 0 65 -4 119 -10 123 -6 4 -11 -61 -13 -177 l-2 -183 -3 208 c-2 252
-20 284 -25 45 -1 -90 -4 -16 -5 165 -1 210 -6 327 -12 327 -6 0 -10 -34 -10
-83 0 -68 -3 -84 -15 -84 -9 0 -15 10 -15 23 0 13 -4 26 -10 29 -10 6 -12 -12
-12 -100 0 -29 -1 -32 -5 -12 -7 46 -23 30 -25 -25 -1 -37 -2 -43 -5 -20 -2
18 -9 30 -14 27 -5 -4 -9 12 -9 34 0 23 -4 41 -10 41 -5 0 -11 -54 -13 -127
l-3 -128 -2 143 c-1 81 -6 142 -11 142 -6 0 -12 -21 -14 -47 -2 -33 -4 -25 -4
25 -1 75 -9 103 -20 64 -3 -12 -9 -19 -14 -16 -5 3 -10 -14 -10 -38 -2 -30 -3
-35 -6 -15 -2 15 -11 27 -19 27 -8 0 -13 3 -13 8 3 17 -2 35 -8 29 -3 -4 -8
-33 -10 -64 -2 -32 -8 -60 -13 -63 -5 -3 -10 -23 -13 -45 -2 -22 -4 13 -5 78
-2 103 -11 143 -25 105 -2 -7 -3 8 -2 35 1 33 -2 47 -12 47 -10 0 -13 23 -13
95 0 57 -4 95 -10 95 -6 0 -11 -86 -12 -232 l-3 -233 -2 203 c-2 111 -7 202
-12 202 -5 0 -11 -5 -13 -12 -2 -6 -4 18 -4 55 1 39 -3 67 -9 67 -5 0 -9 -16
-8 -36 1 -26 -2 -34 -13 -30 -11 4 -14 -36 -17 -237 l-2 -242 -3 274 c-2 219
-5 272 -15 268 -10 -4 -13 9 -13 47 0 35 -3 50 -12 48 -7 -1 -12 9 -12 27 0
17 -4 33 -10 36 -7 4 -11 -130 -12 -392 l-3 -398 -2 338 c-2 194 -7 337 -12
337 -5 0 -12 -8 -14 -17 -3 -10 -6 29 -7 87 -1 58 -4 100 -6 93 -3 -7 -12 -9
-20 -6 -12 4 -14 -36 -16 -273 -2 -263 -3 -267 -5 -71 -3 163 -6 208 -16 204
-10 -4 -12 28 -12 142 1 152 -3 190 -16 155 -5 -13 -8 -6 -8 24 -1 23 -5 42
-11 42 -7 0 -11 -197 -12 -567 l-3 -568 -2 518 c-2 333 -7 517 -13 517 -6 0
-11 -155 -12 -432 -2 -407 -3 -417 -8 -163 -3 149 -9 263 -13 254 -4 -9 -7
-80 -5 -157 2 -111 0 -138 -9 -130 -10 8 -13 -21 -14 -138 -1 -82 -2 -174 -2
-204 0 -39 -1 -44 -4 -17 -2 20 -8 37 -14 37 -5 0 -10 -103 -11 -252 l-3 -253
-2 243 c-2 150 -7 242 -13 242 -6 0 -11 -106 -12 -282 l-3 -283 -2 248 c-2
153 -7 247 -13 247 -6 0 -11 -104 -12 -277 l-3 -278 -2 253 c-2 156 -7 252
-13 252 -6 0 -11 -95 -12 -252 l-3 -253 -2 218 c-4 293 -22 290 -25 -5 l-3
-223 -2 198 c-5 271 -22 260 -25 -15 l-3 -213 -2 188 c-5 257 -22 247 -25 -15
l-3 -203 -2 193 c-4 262 -22 255 -25 -10 l-3 -203 -2 188 c-4 252 -22 249 -25
-5 l-3 -193 -2 178 c-4 230 -22 238 -25 10 l-2 -168 -3 155 c-4 169 -23 239
-23 82 0 -51 -4 -92 -8 -92 -5 0 -7 31 -5 70 2 52 -1 70 -10 70 -10 0 -13 -25
-11 -105 1 -58 -2 -105 -7 -105 -4 0 -8 39 -8 88 1 125 0 132 -12 132 -6 0 -9
-40 -8 -115 1 -64 -1 -119 -5 -122 -3 -4 -6 54 -6 127 0 174 -18 162 -23 -15
l-3 -130 -2 143 c-1 86 -6 142 -12 142 -6 0 -11 -56 -12 -142 l-2 -143 -3 118
c-5 167 -23 149 -25 -25 l-2 -143 -3 118 c-4 140 -22 158 -25 25 -2 -93 -2
-93 -5 -18 -5 116 -17 116 -23 0 l-6 -105 -2 103 c-2 95 -15 136 -25 75 -3
-20 -4 -15 -6 15 0 23 -5 42 -11 42 -10 0 -14 -21 -11 -47 1 -7 -2 -13 -7 -13
-5 0 -9 80 -10 178 -1 223 0 212 -13 212 -6 0 -9 -28 -8 -75 1 -42 -1 -78 -5
-82 -3 -3 -6 156 -6 355 0 231 -4 362 -10 362 -6 0 -11 -114 -13 -307 l-2
-308 -3 383 c-1 254 -5 382 -12 382 -7 0 -10 -86 -8 -260 2 -143 0 -260 -4
-260 -5 0 -8 144 -8 320 0 203 -4 320 -10 320 -6 0 -11 -96 -13 -252 -2 -251
-2 -251 -5 72 -1 212 -5 321 -12 314 -6 -6 -11 -113 -13 -259 -2 -246 -2 -244
-5 74 -2 295 -3 322 -18 310 -14 -11 -16 -10 -12 11 2 17 -2 25 -12 25 -8 0
-16 10 -16 23 -2 35 -4 38 -14 22 -7 -10 -10 14 -10 77 0 50 -4 95 -10 98 -7
4 -11 -176 -12 -532 l-3 -538 -2 518 c-2 327 -7 517 -13 517 -6 0 -11 -111
-13 -292 l-2 -293 -3 318 c-1 203 -6 317 -12 317 -6 0 -11 -33 -11 -77 -1 -43
-4 -68 -6 -55 -2 12 -9 20 -14 17 -5 -4 -9 1 -9 9 0 9 -4 16 -10 16 -6 0 -11
-112 -12 -312 -2 -225 -3 -259 -5 -120 -2 109 -7 192 -13 192 -5 0 -11 -24
-13 -52 -2 -29 -4 202 -5 515 -1 370 -5 567 -12 567 -7 0 -10 -220 -10 -640z
m-873 -302 c-2 -13 -4 -5 -4 17 -1 22 1 32 4 23 2 -10 2 -28 0 -40z m1070 10
c-3 -8 -6 -5 -6 6 -1 11 2 17 5 13 3 -3 4 -12 1 -19z m26 -33 c4 -8 3 -16 -1
-19 -4 -3 -9 4 -9 15 -2 23 3 25 10 4z m-1096 -27 c-3 -8 -6 -5 -6 6 -1 11 2
17 5 13 3 -3 4 -12 1 -19z m2030 0 c-3 -8 -6 -5 -6 6 -1 11 2 17 5 13 3 -3 4
-12 1 -19z m-2030 -50 c-3 -7 -5 -2 -5 12 0 14 2 19 5 13 2 -7 2 -19 0 -25z
m1103 22 c0 -5 -5 -10 -11 -10 -5 0 -7 5 -4 10 3 6 8 10 11 10 2 0 4 -4 4 -10z
m17 -32 c-3 -7 -5 -2 -5 12 0 14 2 19 5 13 2 -7 2 -19 0 -25z m-140 0 c-3 -8
-6 -5 -6 6 -1 11 2 17 5 13 3 -3 4 -12 1 -19z m1050 0 c-3 -8 -6 -5 -6 6 -1
11 2 17 5 13 3 -3 4 -12 1 -19z m-960 -40 c-3 -7 -5 -2 -5 12 0 14 2 19 5 13
2 -7 2 -19 0 -25z m-90 0 c-3 -8 -6 -5 -6 6 -1 11 2 17 5 13 3 -3 4 -12 1 -19z
m140 0 c-3 -8 -6 -5 -6 6 -1 11 2 17 5 13 3 -3 4 -12 1 -19z m-140 -40 c-3 -8
-6 -5 -6 6 -1 11 2 17 5 13 3 -3 4 -12 1 -19z m140 0 c-3 -8 -6 -5 -6 6 -1 11
2 17 5 13 3 -3 4 -12 1 -19z m910 0 c-3 -8 -6 -5 -6 6 -1 11 2 17 5 13 3 -3 4
-12 1 -19z m-927 -2 c0 -3 -4 -8 -10 -11 -5 -3 -10 -1 -10 4 0 6 5 11 10 11 6
0 10 -2 10 -4z m0 -46 c0 -5 -5 -10 -11 -10 -5 0 -7 5 -4 10 3 6 8 10 11 10 2
0 4 -4 4 -10z m927 -12 c-3 -8 -6 -5 -6 6 -1 11 2 17 5 13 3 -3 4 -12 1 -19z
m-1810 -10 c-3 -8 -6 -5 -6 6 -1 11 2 17 5 13 3 -3 4 -12 1 -19z m900 -10 c-3
-7 -5 -2 -5 12 0 14 2 19 5 13 2 -7 2 -19 0 -25z m-900 -40 c-3 -7 -5 -2 -5
12 0 14 2 19 5 13 2 -7 2 -19 0 -25z m900 0 c-3 -8 -6 -5 -6 6 -1 11 2 17 5
13 3 -3 4 -12 1 -19z m910 0 c-3 -8 -6 -5 -6 6 -1 11 2 17 5 13 3 -3 4 -12 1
-19z m-1810 -50 c-3 -7 -5 -2 -5 12 0 14 2 19 5 13 2 -7 2 -19 0 -25z m900 10
c-3 -8 -6 -5 -6 6 -1 11 2 17 5 13 3 -3 4 -12 1 -19z m-17 -2 c0 -3 -4 -8 -10
-11 -5 -3 -10 -1 -10 4 0 6 5 11 10 11 6 0 10 -2 10 -4z m927 -18 c-3 -8 -6
-5 -6 6 -1 11 2 17 5 13 3 -3 4 -12 1 -19z m-1630 -10 c-3 -8 -6 -5 -6 6 -1
11 2 17 5 13 3 -3 4 -12 1 -19z m703 -18 c0 -5 -5 -10 -11 -10 -5 0 -7 5 -4
10 3 6 8 10 11 10 2 0 4 -4 4 -10z m-883 -32 c-3 -7 -5 -2 -5 12 0 14 2 19 5
13 2 -7 2 -19 0 -25z m790 10 c-3 -8 -6 -5 -6 6 -1 11 2 17 5 13 3 -3 4 -12 1
-19z m110 -10 c-3 -7 -5 -2 -5 12 0 14 2 19 5 13 2 -7 2 -19 0 -25z m-110 -40
c-3 -7 -5 -2 -5 12 0 14 2 19 5 13 2 -7 2 -19 0 -25z m60 10 c-3 -8 -6 -5 -6
6 -1 11 2 17 5 13 3 -3 4 -12 1 -19z m29 7 c-1 -8 -5 -17 -8 -21 -5 -4 -4 16
1 34 3 9 9 -1 7 -13z m1171 -17 c-3 -7 -5 -2 -5 12 0 14 2 19 5 13 2 -7 2 -19
0 -25z m-2050 -10 c-3 -7 -5 -2 -5 12 0 14 2 19 5 13 2 -7 2 -19 0 -25z m900
10 c-3 -8 -6 -5 -6 6 -1 11 2 17 5 13 3 -3 4 -12 1 -19z m-720 -40 c-3 -7 -5
-2 -5 12 0 14 2 19 5 13 2 -7 2 -19 0 -25z m610 -10 c-3 -7 -5 -2 -5 12 0 14
2 19 5 13 2 -7 2 -19 0 -25z m84 9 c-10 -9 -11 -8 -5 6 3 10 9 15 12 12 3 -3
0 -11 -7 -18z m26 -39 c-3 -7 -5 -2 -5 12 0 14 2 19 5 13 2 -7 2 -19 0 -25z
m-110 -50 c-3 -7 -5 -2 -5 12 0 14 2 19 5 13 2 -7 2 -19 0 -25z m1260 10 c-3
-8 -6 -5 -6 6 -1 11 2 17 5 13 3 -3 4 -12 1 -19z m80 -20 c-3 -8 -6 -5 -6 6
-1 11 2 17 5 13 3 -3 4 -12 1 -19z m-80 -20 c-3 -8 -6 -5 -6 6 -1 11 2 17 5
13 3 -3 4 -12 1 -19z m-1260 -30 c-3 -8 -6 -5 -6 6 -1 11 2 17 5 13 3 -3 4
-12 1 -19z m0 -50 c-3 -7 -5 -2 -5 12 0 14 2 19 5 13 2 -7 2 -19 0 -25z m1440
-40 c-3 -7 -5 -2 -5 12 0 14 2 19 5 13 2 -7 2 -19 0 -25z m-1440 0 c-3 -8 -6
-5 -6 6 -1 11 2 17 5 13 3 -3 4 -12 1 -19z m1070 -70 c-2 -18 -4 -4 -4 32 0
36 2 50 4 33 2 -18 2 -48 0 -65z m190 30 c-3 -7 -5 -2 -5 12 0 14 2 19 5 13 2
-7 2 -19 0 -25z m210 0 c-3 -8 -6 -5 -6 6 -1 11 2 17 5 13 3 -3 4 -12 1 -19z
m-1470 -20 c-3 -8 -6 -5 -6 6 -1 11 2 17 5 13 3 -3 4 -12 1 -19z m1470 -20
c-3 -8 -6 -5 -6 6 -1 11 2 17 5 13 3 -3 4 -12 1 -19z m2070 0 c-3 -8 -6 -5 -6
6 -1 11 2 17 5 13 3 -3 4 -12 1 -19z m-3540 -30 c-3 -7 -5 -2 -5 12 0 14 2 19
5 13 2 -7 2 -19 0 -25z m1630 -30 c-2 -13 -4 -3 -4 22 0 25 2 35 4 23 2 -13 2
-33 0 -45z m-290 30 c-3 -8 -6 -5 -6 6 -1 11 2 17 5 13 3 -3 4 -12 1 -19z
m-1340 -40 c-3 -8 -6 -5 -6 6 -1 11 2 17 5 13 3 -3 4 -12 1 -19z m1070 -10
c-3 -8 -6 -5 -6 6 -1 11 2 17 5 13 3 -3 4 -12 1 -19z m400 0 c-3 -8 -6 -5 -6
6 -1 11 2 17 5 13 3 -3 4 -12 1 -19z m-1470 -30 c-3 -8 -6 -5 -6 6 -1 11 2 17
5 13 3 -3 4 -12 1 -19z m1630 -40 c-2 -13 -4 -3 -4 22 0 25 2 35 4 23 2 -13 2
-33 0 -45z m-160 -10 c-3 -7 -5 -2 -5 12 0 14 2 19 5 13 2 -7 2 -19 0 -25z
m-1470 -20 c-3 -8 -6 -5 -6 6 -1 11 2 17 5 13 3 -3 4 -12 1 -19z m1550 -55
c-2 -16 -4 -5 -4 22 0 28 2 40 4 28 2 -13 2 -35 0 -50z m-80 35 c-3 -8 -6 -5
-6 6 -1 11 2 17 5 13 3 -3 4 -12 1 -19z m160 -40 c-2 -13 -4 -3 -4 22 0 25 2
35 4 23 2 -13 2 -33 0 -45z m-1422 33 c3 -5 2 -12 -3 -15 -5 -3 -9 1 -9 9 0
17 3 19 12 6z m2281 -126 c0 -63 -3 -115 -8 -115 -4 0 -7 52 -7 115 0 63 3
115 7 115 4 0 7 -52 8 -115z m-1019 53 c-3 -7 -5 -2 -5 12 0 14 2 19 5 13 2
-7 2 -19 0 -25z m-1270 -20 c-3 -8 -6 -5 -6 6 -1 11 2 17 5 13 3 -3 4 -12 1
-19z m1350 -65 c-2 -16 -4 -5 -4 22 0 28 2 40 4 28 2 -13 2 -35 0 -50z m80
-66 c-2 -23 -3 -1 -3 48 0 50 1 68 3 42 2 -26 2 -67 0 -90z m140 41 c-3 -8 -6
-5 -6 6 -1 11 2 17 5 13 3 -3 4 -12 1 -19z m-300 -10 c-3 -8 -6 -5 -6 6 -1 11
2 17 5 13 3 -3 4 -12 1 -19z m80 -20 c-3 -8 -6 -5 -6 6 -1 11 2 17 5 13 3 -3
4 -12 1 -19z m160 -25 c-3 -10 -5 -2 -5 17 0 19 2 27 5 18 2 -10 2 -26 0 -35z
m60 5 c-3 -7 -5 -2 -5 12 0 14 2 19 5 13 2 -7 2 -19 0 -25z m-1503 -33 c-4 -8
-8 -15 -10 -15 -2 0 -4 7 -4 15 0 8 4 15 10 15 5 0 7 -7 4 -15z m2222 -15 c1
-16 -2 -27 -7 -24 -11 6 -12 54 -1 54 4 0 8 -13 8 -30z m-779 -12 c-3 -7 -5
-2 -5 12 0 14 2 19 5 13 2 -7 2 -19 0 -25z m-1415 -213 c3 -14 1 -25 -3 -25
-5 0 -9 11 -9 25 0 14 2 25 4 25 2 0 6 -11 8 -25z m288 -25 c0 -5 -5 -10 -11
-10 -5 0 -7 5 -4 10 3 6 8 10 11 10 2 0 4 -4 4 -10z m-280 -31 c0 -5 -4 -9 -8
-9 -5 0 -9 7 -9 15 0 8 4 12 9 9 4 -3 8 -9 8 -15z m280 -19 c0 -39 -15 -39
-16 0 -1 17 3 30 7 30 5 0 9 -13 9 -30z m-253 -47 c-3 -10 -5 -2 -5 17 0 19 2
27 5 18 2 -10 2 -26 0 -35z m221 12 c-3 -27 -10 -25 -15 5 -2 11 2 20 7 20 5
0 9 -11 8 -25z m2879 3 c-3 -8 -6 -5 -6 6 -1 11 2 17 5 13 3 -3 4 -12 1 -19z
m-2910 -13 c0 -8 -4 -12 -9 -9 -4 3 -8 9 -8 15 0 5 4 9 8 9 5 0 9 -7 9 -15z
m2100 -57 c-3 -8 -6 -5 -6 6 -1 11 2 17 5 13 3 -3 4 -12 1 -19z m-2850 -150
c-3 -8 -6 -5 -6 6 -1 11 2 17 5 13 3 -3 4 -12 1 -19z m900 -148 c1 -28 -3 -52
-7 -55 -7 -4 -8 90 -1 103 5 10 8 -5 8 -48z m2800 -182 c-3 -8 -6 -5 -6 6 -1
11 2 17 5 13 3 -3 4 -12 1 -19z m0 -65 c-3 -10 -5 -4 -5 12 0 17 2 24 5 18 2
-7 2 -21 0 -30z m-1810 -145 c-3 -8 -6 -5 -6 6 -1 11 2 17 5 13 3 -3 4 -12 1
-19z m-400 -80 c-3 -7 -5 -2 -5 12 0 14 2 19 5 13 2 -7 2 -19 0 -25z m980 -10
c-3 -7 -5 -2 -5 12 0 14 2 19 5 13 2 -7 2 -19 0 -25z m0 -70 c-3 -8 -6 -5 -6
6 -1 11 2 17 5 13 3 -3 4 -12 1 -19z m-2260 -140 c-3 -7 -5 -2 -5 12 0 14 2
19 5 13 2 -7 2 -19 0 -25z m80 -30 c-3 -8 -6 -5 -6 6 -1 11 2 17 5 13 3 -3 4
-12 1 -19z m-110 -10 c-3 -8 -6 -5 -6 6 -1 11 2 17 5 13 3 -3 4 -12 1 -19z
m110 -45 c-3 -10 -5 -4 -5 12 0 17 2 24 5 18 2 -7 2 -21 0 -30z m-1000 -5 c-3
-7 -5 -2 -5 12 0 14 2 19 5 13 2 -7 2 -19 0 -25z m920 -70 c-2 -13 -4 -5 -4
17 -1 22 1 32 4 23 2 -10 2 -28 0 -40z m0 -50 c-3 -8 -6 -5 -6 6 -1 11 2 17 5
13 3 -3 4 -12 1 -19z m0 -100 c-3 -8 -6 -5 -6 6 -1 11 2 17 5 13 3 -3 4 -12 1
-19z m2180 -210 c-3 -8 -6 -5 -6 6 -1 11 2 17 5 13 3 -3 4 -12 1 -19z m0 -50
c-3 -7 -5 -2 -5 12 0 14 2 19 5 13 2 -7 2 -19 0 -25z"/>
<path d="M5041 3004 c0 -11 3 -14 6 -6 3 7 2 16 -1 19 -3 4 -6 -2 -5 -13z"/>
</g>
</svg>
